<mxfile host="app.diagrams.net" modified="2023-06-09T18:29:13.199Z" agent="Mozilla/5.0 (Windows NT 10.0; Win64; x64) AppleWebKit/537.36 (KHTML, like Gecko) Chrome/114.0.0.0 Safari/537.36" etag="yUBIFpmjUKAommAsPkIa" version="21.3.8" type="github">
  <diagram id="R2lEEEUBdFMjLlhIrx00" name="Page-1">
    <mxGraphModel dx="880" dy="484" grid="1" gridSize="10" guides="1" tooltips="1" connect="1" arrows="1" fold="1" page="1" pageScale="1" pageWidth="850" pageHeight="1100" math="0" shadow="0" extFonts="Permanent Marker^https://fonts.googleapis.com/css?family=Permanent+Marker">
      <root>
        <mxCell id="0" />
        <mxCell id="1" parent="0" />
        <mxCell id="nKc4ooKDmqQCGkNvfn4H-1" value="Employess" style="rounded=0;whiteSpace=wrap;html=1;verticalAlign=middle;fontStyle=0;fontSize=16;" vertex="1" parent="1">
          <mxGeometry x="130" y="460" width="120" height="60" as="geometry" />
        </mxCell>
        <mxCell id="nKc4ooKDmqQCGkNvfn4H-2" value="BOD" style="ellipse;whiteSpace=wrap;html=1;" vertex="1" parent="1">
          <mxGeometry x="220" y="370" width="70" height="30" as="geometry" />
        </mxCell>
        <mxCell id="nKc4ooKDmqQCGkNvfn4H-5" value="" style="endArrow=none;html=1;rounded=0;exitX=0.75;exitY=0;exitDx=0;exitDy=0;entryX=0.5;entryY=1;entryDx=0;entryDy=0;" edge="1" parent="1" source="nKc4ooKDmqQCGkNvfn4H-1" target="nKc4ooKDmqQCGkNvfn4H-2">
          <mxGeometry width="50" height="50" relative="1" as="geometry">
            <mxPoint x="190" y="440" as="sourcePoint" />
            <mxPoint x="240" y="390" as="targetPoint" />
            <Array as="points" />
          </mxGeometry>
        </mxCell>
        <mxCell id="nKc4ooKDmqQCGkNvfn4H-6" style="edgeStyle=orthogonalEdgeStyle;rounded=0;orthogonalLoop=1;jettySize=auto;html=1;exitX=0;exitY=1;exitDx=0;exitDy=0;entryX=0.057;entryY=0.9;entryDx=0;entryDy=0;entryPerimeter=0;" edge="1" parent="1" source="nKc4ooKDmqQCGkNvfn4H-2" target="nKc4ooKDmqQCGkNvfn4H-2">
          <mxGeometry relative="1" as="geometry" />
        </mxCell>
        <mxCell id="nKc4ooKDmqQCGkNvfn4H-7" value="Gender" style="ellipse;whiteSpace=wrap;html=1;direction=west;" vertex="1" parent="1">
          <mxGeometry x="280" y="420" width="60" height="30" as="geometry" />
        </mxCell>
        <mxCell id="nKc4ooKDmqQCGkNvfn4H-8" value="" style="endArrow=none;html=1;rounded=0;entryX=1;entryY=0;entryDx=0;entryDy=0;exitX=1.008;exitY=0.133;exitDx=0;exitDy=0;exitPerimeter=0;" edge="1" parent="1" source="nKc4ooKDmqQCGkNvfn4H-1" target="nKc4ooKDmqQCGkNvfn4H-7">
          <mxGeometry width="50" height="50" relative="1" as="geometry">
            <mxPoint x="240" y="460" as="sourcePoint" />
            <mxPoint x="290" y="410" as="targetPoint" />
            <Array as="points" />
          </mxGeometry>
        </mxCell>
        <mxCell id="nKc4ooKDmqQCGkNvfn4H-10" value="SSN" style="ellipse;whiteSpace=wrap;html=1;fontStyle=4" vertex="1" parent="1">
          <mxGeometry x="20" y="440" width="60" height="30" as="geometry" />
        </mxCell>
        <mxCell id="nKc4ooKDmqQCGkNvfn4H-11" value="" style="endArrow=none;html=1;rounded=0;exitX=1;exitY=0.5;exitDx=0;exitDy=0;entryX=0;entryY=0.25;entryDx=0;entryDy=0;" edge="1" parent="1" source="nKc4ooKDmqQCGkNvfn4H-10" target="nKc4ooKDmqQCGkNvfn4H-1">
          <mxGeometry width="50" height="50" relative="1" as="geometry">
            <mxPoint x="80" y="490" as="sourcePoint" />
            <mxPoint x="130" y="440" as="targetPoint" />
          </mxGeometry>
        </mxCell>
        <mxCell id="nKc4ooKDmqQCGkNvfn4H-12" value="NAME" style="ellipse;whiteSpace=wrap;html=1;" vertex="1" parent="1">
          <mxGeometry x="110" y="400" width="60" height="30" as="geometry" />
        </mxCell>
        <mxCell id="nKc4ooKDmqQCGkNvfn4H-14" value="" style="endArrow=none;html=1;rounded=0;entryX=0.5;entryY=1;entryDx=0;entryDy=0;exitX=0.25;exitY=0;exitDx=0;exitDy=0;" edge="1" parent="1" source="nKc4ooKDmqQCGkNvfn4H-1" target="nKc4ooKDmqQCGkNvfn4H-12">
          <mxGeometry width="50" height="50" relative="1" as="geometry">
            <mxPoint x="140" y="470" as="sourcePoint" />
            <mxPoint x="190" y="420" as="targetPoint" />
          </mxGeometry>
        </mxCell>
        <mxCell id="nKc4ooKDmqQCGkNvfn4H-15" style="edgeStyle=none;rounded=0;orthogonalLoop=1;jettySize=auto;html=1;entryX=1;entryY=1;entryDx=0;entryDy=0;" edge="1" parent="1" source="nKc4ooKDmqQCGkNvfn4H-12" target="nKc4ooKDmqQCGkNvfn4H-12">
          <mxGeometry relative="1" as="geometry" />
        </mxCell>
        <mxCell id="nKc4ooKDmqQCGkNvfn4H-16" value="Fname" style="ellipse;whiteSpace=wrap;html=1;" vertex="1" parent="1">
          <mxGeometry x="30" y="360" width="60" height="30" as="geometry" />
        </mxCell>
        <mxCell id="nKc4ooKDmqQCGkNvfn4H-17" value="Lname" style="ellipse;whiteSpace=wrap;html=1;" vertex="1" parent="1">
          <mxGeometry x="130" y="350" width="50" height="25" as="geometry" />
        </mxCell>
        <mxCell id="nKc4ooKDmqQCGkNvfn4H-18" value="" style="endArrow=none;html=1;rounded=0;exitX=0;exitY=0;exitDx=0;exitDy=0;entryX=0.983;entryY=0.8;entryDx=0;entryDy=0;entryPerimeter=0;" edge="1" parent="1" source="nKc4ooKDmqQCGkNvfn4H-12" target="nKc4ooKDmqQCGkNvfn4H-16">
          <mxGeometry width="50" height="50" relative="1" as="geometry">
            <mxPoint x="60" y="420" as="sourcePoint" />
            <mxPoint x="110" y="370" as="targetPoint" />
          </mxGeometry>
        </mxCell>
        <mxCell id="nKc4ooKDmqQCGkNvfn4H-20" value="" style="endArrow=none;html=1;rounded=0;exitX=0.5;exitY=0;exitDx=0;exitDy=0;entryX=0.5;entryY=1;entryDx=0;entryDy=0;" edge="1" parent="1" source="nKc4ooKDmqQCGkNvfn4H-12" target="nKc4ooKDmqQCGkNvfn4H-17">
          <mxGeometry width="50" height="50" relative="1" as="geometry">
            <mxPoint x="140" y="410" as="sourcePoint" />
            <mxPoint x="190" y="360" as="targetPoint" />
          </mxGeometry>
        </mxCell>
        <mxCell id="nKc4ooKDmqQCGkNvfn4H-21" value="&lt;font style=&quot;font-size: 15px;&quot;&gt;Departments&lt;/font&gt;" style="rounded=0;whiteSpace=wrap;html=1;" vertex="1" parent="1">
          <mxGeometry x="670" y="460" width="120" height="60" as="geometry" />
        </mxCell>
        <mxCell id="nKc4ooKDmqQCGkNvfn4H-22" value="Dnumber" style="ellipse;whiteSpace=wrap;html=1;fontStyle=4" vertex="1" parent="1">
          <mxGeometry x="560" y="390" width="70" height="35" as="geometry" />
        </mxCell>
        <mxCell id="nKc4ooKDmqQCGkNvfn4H-24" value="" style="endArrow=none;html=1;rounded=0;entryX=1;entryY=1;entryDx=0;entryDy=0;" edge="1" parent="1" target="nKc4ooKDmqQCGkNvfn4H-22">
          <mxGeometry width="50" height="50" relative="1" as="geometry">
            <mxPoint x="670" y="460" as="sourcePoint" />
            <mxPoint x="720" y="410" as="targetPoint" />
          </mxGeometry>
        </mxCell>
        <mxCell id="nKc4ooKDmqQCGkNvfn4H-25" value="Dname" style="ellipse;whiteSpace=wrap;html=1;" vertex="1" parent="1">
          <mxGeometry x="660" y="360" width="60" height="40" as="geometry" />
        </mxCell>
        <mxCell id="nKc4ooKDmqQCGkNvfn4H-26" value="" style="endArrow=none;html=1;rounded=0;exitX=0.25;exitY=0;exitDx=0;exitDy=0;entryX=0.5;entryY=1;entryDx=0;entryDy=0;" edge="1" parent="1" source="nKc4ooKDmqQCGkNvfn4H-21" target="nKc4ooKDmqQCGkNvfn4H-25">
          <mxGeometry width="50" height="50" relative="1" as="geometry">
            <mxPoint x="670" y="450" as="sourcePoint" />
            <mxPoint x="720" y="400" as="targetPoint" />
          </mxGeometry>
        </mxCell>
        <mxCell id="nKc4ooKDmqQCGkNvfn4H-27" value="Locations" style="ellipse;whiteSpace=wrap;html=1;" vertex="1" parent="1">
          <mxGeometry x="753.75" y="367.5" width="97.5" height="65" as="geometry" />
        </mxCell>
        <mxCell id="nKc4ooKDmqQCGkNvfn4H-28" value="Locatins" style="ellipse;whiteSpace=wrap;html=1;" vertex="1" parent="1">
          <mxGeometry x="760" y="375" width="85" height="50" as="geometry" />
        </mxCell>
        <mxCell id="nKc4ooKDmqQCGkNvfn4H-30" value="" style="endArrow=none;html=1;rounded=0;entryX=0.413;entryY=0.962;entryDx=0;entryDy=0;entryPerimeter=0;" edge="1" parent="1" target="nKc4ooKDmqQCGkNvfn4H-27">
          <mxGeometry width="50" height="50" relative="1" as="geometry">
            <mxPoint x="750" y="460" as="sourcePoint" />
            <mxPoint x="800" y="410" as="targetPoint" />
          </mxGeometry>
        </mxCell>
        <mxCell id="nKc4ooKDmqQCGkNvfn4H-31" value="Hiring date" style="ellipse;whiteSpace=wrap;html=1;" vertex="1" parent="1">
          <mxGeometry x="410" y="350" width="90" height="60" as="geometry" />
        </mxCell>
        <mxCell id="nKc4ooKDmqQCGkNvfn4H-32" value="" style="rounded=0;whiteSpace=wrap;html=1;" vertex="1" parent="1">
          <mxGeometry x="70" y="680" width="160" height="80" as="geometry" />
        </mxCell>
        <mxCell id="nKc4ooKDmqQCGkNvfn4H-33" value="Dependant" style="rounded=0;whiteSpace=wrap;html=1;fontSize=17;" vertex="1" parent="1">
          <mxGeometry x="80" y="692.5" width="135" height="55" as="geometry" />
        </mxCell>
        <mxCell id="nKc4ooKDmqQCGkNvfn4H-34" value="Gender" style="ellipse;whiteSpace=wrap;html=1;" vertex="1" parent="1">
          <mxGeometry x="210" y="800" width="80" height="40" as="geometry" />
        </mxCell>
        <mxCell id="nKc4ooKDmqQCGkNvfn4H-35" value="BOD" style="ellipse;whiteSpace=wrap;html=1;" vertex="1" parent="1">
          <mxGeometry x="100" y="800" width="80" height="40" as="geometry" />
        </mxCell>
        <mxCell id="nKc4ooKDmqQCGkNvfn4H-36" value="NAME" style="ellipse;whiteSpace=wrap;html=1;" vertex="1" parent="1">
          <mxGeometry y="790" width="80" height="40" as="geometry" />
        </mxCell>
        <mxCell id="nKc4ooKDmqQCGkNvfn4H-37" value="" style="endArrow=none;dashed=1;html=1;dashPattern=1 3;strokeWidth=2;rounded=0;" edge="1" parent="1">
          <mxGeometry width="50" height="50" relative="1" as="geometry">
            <mxPoint x="15" y="819.5" as="sourcePoint" />
            <mxPoint x="65" y="820" as="targetPoint" />
          </mxGeometry>
        </mxCell>
        <mxCell id="nKc4ooKDmqQCGkNvfn4H-38" value="" style="endArrow=none;html=1;rounded=0;" edge="1" parent="1">
          <mxGeometry width="50" height="50" relative="1" as="geometry">
            <mxPoint x="50" y="790" as="sourcePoint" />
            <mxPoint x="80" y="760" as="targetPoint" />
          </mxGeometry>
        </mxCell>
        <mxCell id="nKc4ooKDmqQCGkNvfn4H-39" value="" style="endArrow=none;html=1;rounded=0;exitX=0.313;exitY=0.075;exitDx=0;exitDy=0;exitPerimeter=0;entryX=0.5;entryY=1;entryDx=0;entryDy=0;" edge="1" parent="1" source="nKc4ooKDmqQCGkNvfn4H-35" target="nKc4ooKDmqQCGkNvfn4H-32">
          <mxGeometry width="50" height="50" relative="1" as="geometry">
            <mxPoint x="120" y="810" as="sourcePoint" />
            <mxPoint x="170" y="760" as="targetPoint" />
          </mxGeometry>
        </mxCell>
        <mxCell id="nKc4ooKDmqQCGkNvfn4H-40" value="" style="endArrow=none;html=1;rounded=0;exitX=1;exitY=0;exitDx=0;exitDy=0;" edge="1" parent="1" source="nKc4ooKDmqQCGkNvfn4H-43">
          <mxGeometry width="50" height="50" relative="1" as="geometry">
            <mxPoint x="600" y="790" as="sourcePoint" />
            <mxPoint x="650" y="740" as="targetPoint" />
          </mxGeometry>
        </mxCell>
        <mxCell id="nKc4ooKDmqQCGkNvfn4H-41" value="" style="endArrow=none;html=1;rounded=0;exitX=0;exitY=0;exitDx=0;exitDy=0;entryX=0.75;entryY=1;entryDx=0;entryDy=0;" edge="1" parent="1" source="nKc4ooKDmqQCGkNvfn4H-34" target="nKc4ooKDmqQCGkNvfn4H-32">
          <mxGeometry width="50" height="50" relative="1" as="geometry">
            <mxPoint x="190" y="810" as="sourcePoint" />
            <mxPoint x="240" y="760" as="targetPoint" />
          </mxGeometry>
        </mxCell>
        <mxCell id="nKc4ooKDmqQCGkNvfn4H-42" value="&lt;font style=&quot;font-size: 16px;&quot;&gt;Projects&lt;/font&gt;" style="rounded=0;whiteSpace=wrap;html=1;fontSize=16;" vertex="1" parent="1">
          <mxGeometry x="650" y="680" width="130" height="60" as="geometry" />
        </mxCell>
        <mxCell id="nKc4ooKDmqQCGkNvfn4H-43" value="Location" style="ellipse;whiteSpace=wrap;html=1;" vertex="1" parent="1">
          <mxGeometry x="560" y="770" width="60" height="40" as="geometry" />
        </mxCell>
        <mxCell id="nKc4ooKDmqQCGkNvfn4H-44" value="Pnumber" style="ellipse;whiteSpace=wrap;html=1;" vertex="1" parent="1">
          <mxGeometry x="630" y="790" width="70" height="40" as="geometry" />
        </mxCell>
        <mxCell id="nKc4ooKDmqQCGkNvfn4H-45" value="Pname" style="ellipse;whiteSpace=wrap;html=1;" vertex="1" parent="1">
          <mxGeometry x="720" y="790" width="65" height="40" as="geometry" />
        </mxCell>
        <mxCell id="nKc4ooKDmqQCGkNvfn4H-46" value="city" style="ellipse;whiteSpace=wrap;html=1;" vertex="1" parent="1">
          <mxGeometry x="800" y="760" width="70" height="40" as="geometry" />
        </mxCell>
        <mxCell id="nKc4ooKDmqQCGkNvfn4H-47" value="" style="endArrow=none;html=1;rounded=0;exitX=0.329;exitY=0.1;exitDx=0;exitDy=0;exitPerimeter=0;entryX=0.25;entryY=1;entryDx=0;entryDy=0;" edge="1" parent="1" source="nKc4ooKDmqQCGkNvfn4H-44" target="nKc4ooKDmqQCGkNvfn4H-42">
          <mxGeometry width="50" height="50" relative="1" as="geometry">
            <mxPoint x="650" y="790" as="sourcePoint" />
            <mxPoint x="700" y="740" as="targetPoint" />
          </mxGeometry>
        </mxCell>
        <mxCell id="nKc4ooKDmqQCGkNvfn4H-48" value="" style="endArrow=none;html=1;rounded=0;entryX=0.5;entryY=1;entryDx=0;entryDy=0;" edge="1" parent="1" target="nKc4ooKDmqQCGkNvfn4H-42">
          <mxGeometry width="50" height="50" relative="1" as="geometry">
            <mxPoint x="740" y="790" as="sourcePoint" />
            <mxPoint x="760" y="740" as="targetPoint" />
          </mxGeometry>
        </mxCell>
        <mxCell id="nKc4ooKDmqQCGkNvfn4H-49" value="" style="endArrow=none;html=1;rounded=0;exitX=0;exitY=0;exitDx=0;exitDy=0;entryX=0.75;entryY=1;entryDx=0;entryDy=0;" edge="1" parent="1" source="nKc4ooKDmqQCGkNvfn4H-46" target="nKc4ooKDmqQCGkNvfn4H-42">
          <mxGeometry width="50" height="50" relative="1" as="geometry">
            <mxPoint x="770" y="760" as="sourcePoint" />
            <mxPoint x="820" y="710" as="targetPoint" />
          </mxGeometry>
        </mxCell>
        <mxCell id="nKc4ooKDmqQCGkNvfn4H-50" value="SuperVise" style="rhombus;whiteSpace=wrap;html=1;" vertex="1" parent="1">
          <mxGeometry x="30" y="540" width="70" height="70" as="geometry" />
        </mxCell>
        <mxCell id="nKc4ooKDmqQCGkNvfn4H-51" value="" style="rhombus;whiteSpace=wrap;html=1;" vertex="1" parent="1">
          <mxGeometry x="140" y="550" width="80" height="70" as="geometry" />
        </mxCell>
        <mxCell id="nKc4ooKDmqQCGkNvfn4H-52" value="Has" style="rhombus;whiteSpace=wrap;html=1;" vertex="1" parent="1">
          <mxGeometry x="150" y="560" width="60" height="50" as="geometry" />
        </mxCell>
        <mxCell id="nKc4ooKDmqQCGkNvfn4H-53" value="1" style="endArrow=none;html=1;rounded=0;entryX=0.25;entryY=1;entryDx=0;entryDy=0;exitX=0;exitY=0;exitDx=0;exitDy=0;" edge="1" parent="1" source="nKc4ooKDmqQCGkNvfn4H-51" target="nKc4ooKDmqQCGkNvfn4H-1">
          <mxGeometry x="0.5789" y="-10" width="50" height="50" relative="1" as="geometry">
            <mxPoint x="140" y="575" as="sourcePoint" />
            <mxPoint x="190" y="525" as="targetPoint" />
            <Array as="points" />
            <mxPoint as="offset" />
          </mxGeometry>
        </mxCell>
        <mxCell id="nKc4ooKDmqQCGkNvfn4H-54" value="1" style="endArrow=none;html=1;rounded=0;" edge="1" parent="1">
          <mxGeometry x="0.8" y="-7" width="50" height="50" relative="1" as="geometry">
            <mxPoint x="90" y="570" as="sourcePoint" />
            <mxPoint x="140" y="520" as="targetPoint" />
            <mxPoint as="offset" />
          </mxGeometry>
        </mxCell>
        <mxCell id="nKc4ooKDmqQCGkNvfn4H-55" value="" style="endArrow=none;html=1;rounded=0;exitX=0.543;exitY=0.1;exitDx=0;exitDy=0;exitPerimeter=0;" edge="1" parent="1" source="nKc4ooKDmqQCGkNvfn4H-50">
          <mxGeometry width="50" height="50" relative="1" as="geometry">
            <mxPoint x="70" y="540" as="sourcePoint" />
            <mxPoint x="130" y="500" as="targetPoint" />
          </mxGeometry>
        </mxCell>
        <mxCell id="nKc4ooKDmqQCGkNvfn4H-56" value="m" style="endArrow=none;html=1;rounded=0;exitX=0.5;exitY=0;exitDx=0;exitDy=0;" edge="1" parent="1" source="nKc4ooKDmqQCGkNvfn4H-50">
          <mxGeometry x="0.6134" y="12" width="50" height="50" relative="1" as="geometry">
            <mxPoint x="80" y="540" as="sourcePoint" />
            <mxPoint x="130" y="490" as="targetPoint" />
            <Array as="points" />
            <mxPoint as="offset" />
          </mxGeometry>
        </mxCell>
        <mxCell id="nKc4ooKDmqQCGkNvfn4H-57" value="" style="endArrow=none;html=1;rounded=0;exitX=0.5;exitY=0;exitDx=0;exitDy=0;" edge="1" parent="1" source="nKc4ooKDmqQCGkNvfn4H-32">
          <mxGeometry width="50" height="50" relative="1" as="geometry">
            <mxPoint x="130" y="670" as="sourcePoint" />
            <mxPoint x="170" y="610" as="targetPoint" />
          </mxGeometry>
        </mxCell>
        <mxCell id="nKc4ooKDmqQCGkNvfn4H-58" value="" style="endArrow=none;html=1;rounded=0;entryX=0.5;entryY=1;entryDx=0;entryDy=0;exitX=0.569;exitY=0;exitDx=0;exitDy=0;exitPerimeter=0;" edge="1" parent="1" source="nKc4ooKDmqQCGkNvfn4H-32" target="nKc4ooKDmqQCGkNvfn4H-51">
          <mxGeometry width="50" height="50" relative="1" as="geometry">
            <mxPoint x="160" y="670" as="sourcePoint" />
            <mxPoint x="190" y="620" as="targetPoint" />
          </mxGeometry>
        </mxCell>
        <mxCell id="nKc4ooKDmqQCGkNvfn4H-59" value="Manage" style="rhombus;whiteSpace=wrap;html=1;" vertex="1" parent="1">
          <mxGeometry x="417.5" y="450" width="65" height="60" as="geometry" />
        </mxCell>
        <mxCell id="nKc4ooKDmqQCGkNvfn4H-60" value="Work" style="rhombus;whiteSpace=wrap;html=1;" vertex="1" parent="1">
          <mxGeometry x="412.5" y="550" width="70" height="65" as="geometry" />
        </mxCell>
        <mxCell id="nKc4ooKDmqQCGkNvfn4H-61" value="Assign" style="rhombus;whiteSpace=wrap;html=1;" vertex="1" parent="1">
          <mxGeometry x="410" y="660" width="72.5" height="70" as="geometry" />
        </mxCell>
        <mxCell id="nKc4ooKDmqQCGkNvfn4H-62" value="" style="endArrow=none;html=1;rounded=0;exitX=0.5;exitY=0;exitDx=0;exitDy=0;entryX=0.5;entryY=1;entryDx=0;entryDy=0;" edge="1" parent="1" source="nKc4ooKDmqQCGkNvfn4H-59" target="nKc4ooKDmqQCGkNvfn4H-31">
          <mxGeometry width="50" height="50" relative="1" as="geometry">
            <mxPoint x="430" y="460" as="sourcePoint" />
            <mxPoint x="480" y="410" as="targetPoint" />
          </mxGeometry>
        </mxCell>
        <mxCell id="nKc4ooKDmqQCGkNvfn4H-63" value="1" style="endArrow=none;html=1;rounded=0;exitX=1;exitY=0.5;exitDx=0;exitDy=0;entryX=0;entryY=0.5;entryDx=0;entryDy=0;" edge="1" parent="1" source="nKc4ooKDmqQCGkNvfn4H-1" target="nKc4ooKDmqQCGkNvfn4H-59">
          <mxGeometry x="-0.8739" y="9" width="50" height="50" relative="1" as="geometry">
            <mxPoint x="360" y="500" as="sourcePoint" />
            <mxPoint x="410" y="450" as="targetPoint" />
            <mxPoint as="offset" />
          </mxGeometry>
        </mxCell>
        <mxCell id="nKc4ooKDmqQCGkNvfn4H-64" value="1" style="endArrow=none;html=1;rounded=0;exitX=1;exitY=0.5;exitDx=0;exitDy=0;entryX=-0.017;entryY=0.383;entryDx=0;entryDy=0;entryPerimeter=0;" edge="1" parent="1" source="nKc4ooKDmqQCGkNvfn4H-59" target="nKc4ooKDmqQCGkNvfn4H-21">
          <mxGeometry x="0.9119" y="13" width="50" height="50" relative="1" as="geometry">
            <mxPoint x="550" y="500" as="sourcePoint" />
            <mxPoint x="600" y="450" as="targetPoint" />
            <mxPoint as="offset" />
          </mxGeometry>
        </mxCell>
        <mxCell id="nKc4ooKDmqQCGkNvfn4H-65" value="1" style="endArrow=none;html=1;rounded=0;exitX=0.915;exitY=0.633;exitDx=0;exitDy=0;exitPerimeter=0;entryX=0;entryY=0.5;entryDx=0;entryDy=0;" edge="1" parent="1" source="nKc4ooKDmqQCGkNvfn4H-59" target="nKc4ooKDmqQCGkNvfn4H-21">
          <mxGeometry x="0.8964" y="-20" width="50" height="50" relative="1" as="geometry">
            <mxPoint x="530" y="550" as="sourcePoint" />
            <mxPoint x="580" y="500" as="targetPoint" />
            <Array as="points">
              <mxPoint x="580" y="490" />
            </Array>
            <mxPoint as="offset" />
          </mxGeometry>
        </mxCell>
        <mxCell id="nKc4ooKDmqQCGkNvfn4H-66" value="m" style="endArrow=none;html=1;rounded=0;exitX=1;exitY=1;exitDx=0;exitDy=0;entryX=0;entryY=0.5;entryDx=0;entryDy=0;" edge="1" parent="1" source="nKc4ooKDmqQCGkNvfn4H-1" target="nKc4ooKDmqQCGkNvfn4H-60">
          <mxGeometry x="-0.8928" y="4" width="50" height="50" relative="1" as="geometry">
            <mxPoint x="350" y="610" as="sourcePoint" />
            <mxPoint x="410" y="580" as="targetPoint" />
            <mxPoint y="1" as="offset" />
          </mxGeometry>
        </mxCell>
        <mxCell id="nKc4ooKDmqQCGkNvfn4H-67" value="" style="endArrow=none;html=1;rounded=0;exitX=0.933;exitY=1.017;exitDx=0;exitDy=0;exitPerimeter=0;entryX=0.107;entryY=0.615;entryDx=0;entryDy=0;entryPerimeter=0;" edge="1" parent="1" source="nKc4ooKDmqQCGkNvfn4H-1" target="nKc4ooKDmqQCGkNvfn4H-60">
          <mxGeometry width="50" height="50" relative="1" as="geometry">
            <mxPoint x="300" y="620" as="sourcePoint" />
            <mxPoint x="390" y="600" as="targetPoint" />
          </mxGeometry>
        </mxCell>
        <mxCell id="nKc4ooKDmqQCGkNvfn4H-69" value="" style="endArrow=none;html=1;rounded=0;exitX=1;exitY=0.5;exitDx=0;exitDy=0;" edge="1" parent="1" source="nKc4ooKDmqQCGkNvfn4H-60">
          <mxGeometry width="50" height="50" relative="1" as="geometry">
            <mxPoint x="620" y="570" as="sourcePoint" />
            <mxPoint x="670" y="520" as="targetPoint" />
          </mxGeometry>
        </mxCell>
        <mxCell id="nKc4ooKDmqQCGkNvfn4H-70" value="m" style="endArrow=none;html=1;rounded=0;exitX=0.75;exitY=1;exitDx=0;exitDy=0;entryX=0.124;entryY=0.329;entryDx=0;entryDy=0;entryPerimeter=0;" edge="1" parent="1" source="nKc4ooKDmqQCGkNvfn4H-1" target="nKc4ooKDmqQCGkNvfn4H-61">
          <mxGeometry x="-0.9507" y="-8" width="50" height="50" relative="1" as="geometry">
            <mxPoint x="330" y="660" as="sourcePoint" />
            <mxPoint x="380" y="610" as="targetPoint" />
            <mxPoint as="offset" />
          </mxGeometry>
        </mxCell>
        <mxCell id="nKc4ooKDmqQCGkNvfn4H-71" value="Control" style="rhombus;whiteSpace=wrap;html=1;" vertex="1" parent="1">
          <mxGeometry x="690" y="570" width="70" height="60" as="geometry" />
        </mxCell>
        <mxCell id="nKc4ooKDmqQCGkNvfn4H-72" value="1" style="endArrow=none;html=1;rounded=0;exitX=0.5;exitY=0;exitDx=0;exitDy=0;entryX=0.5;entryY=1;entryDx=0;entryDy=0;" edge="1" parent="1" source="nKc4ooKDmqQCGkNvfn4H-71" target="nKc4ooKDmqQCGkNvfn4H-21">
          <mxGeometry x="0.5644" y="9" width="50" height="50" relative="1" as="geometry">
            <mxPoint x="690" y="570" as="sourcePoint" />
            <mxPoint x="740" y="520" as="targetPoint" />
            <mxPoint as="offset" />
          </mxGeometry>
        </mxCell>
        <mxCell id="nKc4ooKDmqQCGkNvfn4H-73" value="m" style="endArrow=none;html=1;rounded=0;exitX=0.385;exitY=-0.033;exitDx=0;exitDy=0;exitPerimeter=0;entryX=0;entryY=1;entryDx=0;entryDy=0;" edge="1" parent="1" source="nKc4ooKDmqQCGkNvfn4H-42" target="nKc4ooKDmqQCGkNvfn4H-71">
          <mxGeometry x="-0.7862" y="11" width="50" height="50" relative="1" as="geometry">
            <mxPoint x="660" y="670" as="sourcePoint" />
            <mxPoint x="710" y="620" as="targetPoint" />
            <mxPoint as="offset" />
          </mxGeometry>
        </mxCell>
        <mxCell id="nKc4ooKDmqQCGkNvfn4H-74" value="" style="endArrow=none;html=1;rounded=0;exitX=0.454;exitY=0;exitDx=0;exitDy=0;exitPerimeter=0;entryX=0.4;entryY=0.883;entryDx=0;entryDy=0;entryPerimeter=0;" edge="1" parent="1" source="nKc4ooKDmqQCGkNvfn4H-42" target="nKc4ooKDmqQCGkNvfn4H-71">
          <mxGeometry width="50" height="50" relative="1" as="geometry">
            <mxPoint x="750" y="660" as="sourcePoint" />
            <mxPoint x="800" y="610" as="targetPoint" />
          </mxGeometry>
        </mxCell>
        <mxCell id="nKc4ooKDmqQCGkNvfn4H-75" value="m" style="endArrow=none;html=1;rounded=0;exitX=1;exitY=0.5;exitDx=0;exitDy=0;entryX=0;entryY=0.5;entryDx=0;entryDy=0;" edge="1" parent="1" source="nKc4ooKDmqQCGkNvfn4H-61" target="nKc4ooKDmqQCGkNvfn4H-42">
          <mxGeometry x="0.8709" y="9" width="50" height="50" relative="1" as="geometry">
            <mxPoint x="580" y="730" as="sourcePoint" />
            <mxPoint x="630" y="680" as="targetPoint" />
            <mxPoint as="offset" />
          </mxGeometry>
        </mxCell>
        <mxCell id="nKc4ooKDmqQCGkNvfn4H-76" value="Working Hours" style="ellipse;whiteSpace=wrap;html=1;" vertex="1" parent="1">
          <mxGeometry x="510" y="625" width="80" height="35" as="geometry" />
        </mxCell>
        <mxCell id="nKc4ooKDmqQCGkNvfn4H-77" value="" style="endArrow=none;html=1;rounded=0;exitX=1;exitY=0;exitDx=0;exitDy=0;entryX=0;entryY=0.5;entryDx=0;entryDy=0;" edge="1" parent="1" source="nKc4ooKDmqQCGkNvfn4H-61" target="nKc4ooKDmqQCGkNvfn4H-76">
          <mxGeometry width="50" height="50" relative="1" as="geometry">
            <mxPoint x="460" y="680" as="sourcePoint" />
            <mxPoint x="510" y="630" as="targetPoint" />
          </mxGeometry>
        </mxCell>
      </root>
    </mxGraphModel>
  </diagram>
</mxfile>
